# This file uses centimeters as units for non-parametric coordinates.

mtllib trial3.mtl
g default
v 0.851413 0.536825 4.530564
v 0.652181 0.778054 4.528889
v 0.388154 0.945911 4.527727
v 0.085179 1.024726 4.636820
v -0.227088 1.005339 4.636957
v -0.518082 0.890407 4.637754
v -0.759316 0.691182 4.639131
v -0.927177 0.426402 4.531326
v -1.005235 0.123433 4.533428
v -0.985847 -0.188826 4.535592
v -0.870912 -0.479814 4.537607
v -0.671682 -0.721040 4.539280
v -0.407656 -0.888136 4.650079
v -0.104681 -0.966192 4.650623
v 0.207587 -0.946807 4.650483
v 0.498581 -0.831875 4.649689
v 0.739814 -0.632649 4.648309
v 0.907676 -0.368630 4.646476
v 0.985733 -0.065662 4.644379
v 0.966346 0.245839 4.532581
v -0.009750 0.041593 6.422209
vt 0.737764 0.172746
vt 0.702254 0.103054
vt 0.646946 0.047746
vt 0.577254 0.012236
vt 0.500000 -0.000000
vt 0.422746 0.012236
vt 0.353054 0.047746
vt 0.297746 0.103054
vt 0.262236 0.172746
vt 0.250000 0.250000
vt 0.262236 0.327254
vt 0.297746 0.396946
vt 0.353054 0.452254
vt 0.422746 0.487764
vt 0.500000 0.500000
vt 0.577254 0.487764
vt 0.646946 0.452254
vt 0.702254 0.396946
vt 0.737764 0.327254
vt 0.750000 0.250000
vt 0.250000 0.500000
vt 0.275000 0.500000
vt 0.300000 0.500000
vt 0.325000 0.500000
vt 0.350000 0.500000
vt 0.375000 0.500000
vt 0.400000 0.500000
vt 0.425000 0.500000
vt 0.450000 0.500000
vt 0.475000 0.500000
vt 0.500000 0.500000
vt 0.525000 0.500000
vt 0.550000 0.500000
vt 0.575000 0.500000
vt 0.600000 0.500000
vt 0.625000 0.500000
vt 0.650000 0.500000
vt 0.675000 0.500000
vt 0.700000 0.500000
vt 0.725000 0.500000
vt 0.500000 1.000000
vn 0.016606 -0.022386 -0.999611
vn 0.016606 -0.022386 -0.999611
vn 0.016606 -0.022386 -0.999611
vn 0.016606 -0.022386 -0.999611
vn 0.016606 -0.022386 -0.999612
vn 0.016606 -0.022386 -0.999611
vn 0.016606 -0.022386 -0.999612
vn 0.016606 -0.022386 -0.999612
vn 0.016606 -0.022386 -0.999611
vn 0.016606 -0.022386 -0.999611
vn 0.016606 -0.022386 -0.999612
vn 0.016606 -0.022386 -0.999611
vn 0.016606 -0.022386 -0.999611
vn 0.016606 -0.022386 -0.999612
vn 0.016606 -0.022386 -0.999611
vn 0.016606 -0.022386 -0.999611
vn 0.016606 -0.022386 -0.999612
vn 0.016606 -0.022386 -0.999611
vn 0.016606 -0.022386 -0.999611
vn 0.016606 -0.022386 -0.999611
vn 0.678231 0.563425 0.471757
vn 0.431825 0.775359 0.460810
vn 0.130272 0.098769 0.986547
vn 0.188308 0.856037 0.481394
vn -0.189443 0.854205 0.484195
vn -0.443095 0.754022 0.484890
vn -0.720158 0.497224 0.483881
vn -0.842915 0.271883 0.464300
vn -0.879723 0.087134 0.467435
vn -0.862590 -0.188818 0.469347
vn -0.761021 -0.445964 0.471130
vn -0.649296 -0.597668 0.470327
vn -0.442585 -0.749361 0.492521
vn -0.082747 -0.864310 0.496106
vn 0.189446 -0.847412 0.495988
vn 0.443091 -0.747231 0.495295
vn 0.653370 -0.573570 0.494091
vn 0.799688 -0.343435 0.492495
vn 0.872903 0.027127 0.487139
vn 0.793506 0.388601 0.468335
vn 0.761020 0.452453 0.464903
s off
g pCone1
usemtl initialShadingGroup
f 1/1/1 20/20/2 19/19/3 18/18/4 17/17/5 16/16/6 15/15/7 14/14/8 13/13/9 12/12/10 11/11/11 10/10/12 9/9/13 8/8/14 7/7/15 6/6/16 5/5/17 4/4/18 3/3/19 2/2/20
s 1
f 2/22/21 3/23/22 21/41/23
f 3/23/22 4/24/24 21/41/23
f 4/24/24 5/25/25 21/41/23
f 5/25/25 6/26/26 21/41/23
f 6/26/26 7/27/27 21/41/23
f 7/27/27 8/28/28 21/41/23
f 8/28/28 9/29/29 21/41/23
f 9/29/29 10/30/30 21/41/23
f 10/30/30 11/31/31 21/41/23
f 11/31/31 12/32/32 21/41/23
f 12/32/32 13/33/33 21/41/23
f 13/33/33 14/34/34 21/41/23
f 14/34/34 15/35/35 21/41/23
f 15/35/35 16/36/36 21/41/23
f 16/36/36 17/37/37 21/41/23
f 17/37/37 18/38/38 21/41/23
f 18/38/38 19/39/39 21/41/23
f 19/39/39 20/40/40 21/41/23
f 21/41/23 20/40/40 1/21/41 2/22/21
g default
v 0.764095 0.538677 -3.979233
v 0.652181 0.719070 -3.980485
v 0.388155 0.886928 -3.981649
v 0.085179 0.964983 -3.982188
v -0.227089 0.945597 -3.982053
v -0.518082 0.830664 -3.981257
v -0.759316 0.631438 -3.979876
v -0.927178 0.367420 -3.978046
v -1.005235 0.064451 -3.975950
v -0.985847 -0.247809 -3.973781
v -0.870913 -0.538796 -3.971765
v -0.671682 -0.780024 -3.970093
v -0.167366 -1.119880 -3.993119
v -0.104681 -1.025936 -3.968388
v 0.443867 -1.045202 -3.765211
v 0.498580 -0.891618 -3.969321
v 0.897225 -0.625088 -3.666596
v 0.907676 -0.428372 -3.972528
v 1.019541 -0.020093 -3.746937
v 0.966346 0.186856 -3.976796
v 0.573692 0.695164 4.496821
v 0.652181 0.778004 4.521626
v 0.388154 0.945860 4.520464
v 0.085179 1.023916 4.519923
v -0.227089 1.004528 4.520059
v -0.518082 0.891378 4.777680
v -0.759316 0.690369 4.522236
v -0.927178 0.426350 4.524065
v -1.005235 0.123383 4.526166
v -0.985847 -0.188877 4.528330
v -0.870913 -0.479863 4.530348
v -0.671682 -0.721092 4.532020
v -0.357768 -0.963392 4.482934
v -0.104681 -0.967005 4.533723
v 0.253464 -0.888715 4.710845
v 0.498580 -0.832686 4.532792
v 0.706823 -0.468779 4.784075
v 0.907676 -0.369441 4.529581
v 0.829138 0.136396 4.729121
v 0.966346 0.245788 4.525317
v -0.009751 -0.030478 -3.975290
v -0.009751 0.030236 4.783648
vt 0.648603 0.107966
vt 0.626409 0.064408
vt 0.591842 0.029841
vt 0.548284 0.007647
vt 0.500000 -0.000000
vt 0.451716 0.007647
vt 0.408159 0.029841
vt 0.373591 0.064409
vt 0.351397 0.107966
vt 0.343750 0.156250
vt 0.351397 0.204534
vt 0.373591 0.248091
vt 0.408159 0.282659
vt 0.451716 0.304853
vt 0.500000 0.312500
vt 0.548284 0.304853
vt 0.591841 0.282659
vt 0.626409 0.248091
vt 0.648603 0.204534
vt 0.656250 0.156250
vt 0.375000 0.312500
vt 0.387500 0.312500
vt 0.400000 0.312500
vt 0.412500 0.312500
vt 0.425000 0.312500
vt 0.437500 0.312500
vt 0.450000 0.312500
vt 0.462500 0.312500
vt 0.475000 0.312500
vt 0.487500 0.312500
vt 0.500000 0.312500
vt 0.512500 0.312500
vt 0.525000 0.312500
vt 0.537500 0.312500
vt 0.550000 0.312500
vt 0.562500 0.312500
vt 0.575000 0.312500
vt 0.587500 0.312500
vt 0.600000 0.312500
vt 0.612500 0.312500
vt 0.625000 0.312500
vt 0.375000 0.688440
vt 0.387500 0.688440
vt 0.400000 0.688440
vt 0.412500 0.688440
vt 0.425000 0.688440
vt 0.437500 0.688440
vt 0.450000 0.688440
vt 0.462500 0.688440
vt 0.475000 0.688440
vt 0.487500 0.688440
vt 0.500000 0.688440
vt 0.512500 0.688440
vt 0.525000 0.688440
vt 0.537500 0.688440
vt 0.550000 0.688440
vt 0.562500 0.688440
vt 0.575000 0.688440
vt 0.587500 0.688440
vt 0.600000 0.688440
vt 0.612500 0.688440
vt 0.625000 0.688440
vt 0.648603 0.795466
vt 0.626409 0.751908
vt 0.591842 0.717341
vt 0.548284 0.695147
vt 0.500000 0.687500
vt 0.451716 0.695147
vt 0.408159 0.717341
vt 0.373591 0.751909
vt 0.351397 0.795466
vt 0.343750 0.843750
vt 0.351397 0.892034
vt 0.373591 0.935591
vt 0.408159 0.970159
vt 0.451716 0.992353
vt 0.500000 1.000000
vt 0.548284 0.992353
vt 0.591841 0.970159
vt 0.626409 0.935591
vt 0.648603 0.892034
vt 0.656250 0.843750
vt 0.500000 0.150000
vt 0.500000 0.837500
vn 0.859972 0.510331 0.003169
vn 0.729357 0.684132 -0.001385
vn 0.710325 0.703872 -0.001882
vn 0.866219 0.499652 0.003375
vn 0.397905 0.917405 -0.006359
vn 0.397904 0.917405 -0.006359
vn 0.094930 0.995460 -0.006900
vn 0.094929 0.995460 -0.006900
vn -0.218496 0.975814 -0.006764
vn -0.246102 0.969221 -0.006718
vn -0.508331 0.861141 -0.005969
vn -0.508332 0.861141 -0.005969
vn -0.748779 0.662804 -0.004594
vn -0.729667 0.683787 -0.004740
vn -0.917427 0.397896 -0.002758
vn -0.917426 0.397896 -0.002758
vn -0.995484 0.094927 -0.000658
vn -0.995484 0.094927 -0.000658
vn -0.976097 -0.217332 0.001506
vn -0.976096 -0.217333 0.001506
vn -0.861162 -0.508319 0.003523
vn -0.861162 -0.508319 0.003523
vn -0.657281 -0.753634 0.004091
vn -0.662509 -0.749043 0.004107
vn -0.413731 -0.910373 0.006911
vn -0.395843 -0.918290 0.007212
vn 0.133710 -0.990921 0.014072
vn 0.101489 -0.994742 0.013759
vn 0.248188 -0.968595 0.015073
vn 0.195958 -0.980503 0.014638
vn 0.686739 -0.726707 0.016936
vn 0.676938 -0.735845 0.016941
vn 0.754258 -0.656363 0.016805
vn 0.740935 -0.671366 0.016846
vn 0.990469 -0.137136 0.012851
vn 0.975033 -0.221634 0.013753
vn 0.994889 -0.100204 0.012429
vn 0.996927 -0.077385 0.012162
vn 0.864062 0.503374 0.003303
vn 0.941537 0.336850 0.006285
vn 0.000004 -0.006934 -0.999976
vn 0.000001 -0.006930 -0.999976
vn 0.090154 -0.007142 -0.995902
vn -0.000002 -0.006931 -0.999976
vn -0.000004 -0.006929 -0.999976
vn 0.000000 -0.006929 -0.999976
vn -0.000001 -0.006930 -0.999976
vn -0.000002 -0.006930 -0.999976
vn 0.000001 -0.006925 -0.999976
vn 0.000002 -0.006933 -0.999976
vn -0.000001 -0.006937 -0.999976
vn -0.000002 -0.006930 -0.999976
vn -0.020986 0.011603 -0.999713
vn -0.012965 0.018238 -0.999750
vn 0.357995 -0.040607 -0.932840
vn 0.074673 -0.170047 -0.982603
vn 0.053928 0.024915 -0.998234
vn 0.211425 -0.176575 -0.961312
vn -0.085930 -0.204895 -0.975005
vn 0.216789 -0.033305 -0.975650
vn 0.086886 -0.396562 -0.913887
vn 0.332806 0.111882 0.936335
vn 0.177853 0.181469 0.967180
vn -0.023248 -0.007486 0.999702
vn 0.098983 0.234925 0.966961
vn 0.023616 0.254342 0.966826
vn -0.005685 0.098487 0.995122
vn 0.000000 0.006930 0.999976
vn -0.077439 0.056133 0.995416
vn -0.228218 0.105693 0.967856
vn -0.247634 0.030328 0.968379
vn -0.242812 -0.047349 0.968917
vn -0.214221 -0.119733 0.969419
vn -0.115378 -0.222569 0.968066
vn -0.111518 -0.251876 0.961313
vn -0.302338 -0.204543 0.930996
vn 0.037453 -0.068257 0.996965
vn 0.107611 -0.218557 0.969873
vn 0.036492 0.053252 0.997914
vn 0.275601 0.021713 0.961027
vn 0.050299 0.112262 0.992405
vn 0.159064 0.374484 0.913488
s 1
g pCylinder2
usemtl initialShadingGroup
f 22/62/42 23/63/43 43/84/44 42/83/45
f 23/63/43 24/64/46 44/85/47 43/84/44
f 24/64/46 25/65/48 45/86/49 44/85/47
f 25/65/48 26/66/50 46/87/51 45/86/49
f 26/66/50 27/67/52 47/88/53 46/87/51
f 27/67/52 28/68/54 48/89/55 47/88/53
f 28/68/54 29/69/56 49/90/57 48/89/55
f 29/69/56 30/70/58 50/91/59 49/90/57
f 30/70/58 31/71/60 51/92/61 50/91/59
f 31/71/60 32/72/62 52/93/63 51/92/61
f 32/72/62 33/73/64 53/94/65 52/93/63
f 33/73/64 34/74/66 54/95/67 53/94/65
f 34/74/66 35/75/68 55/96/69 54/95/67
f 35/75/68 36/76/70 56/97/71 55/96/69
f 36/76/70 37/77/72 57/98/73 56/97/71
f 37/77/72 38/78/74 58/99/75 57/98/73
f 38/78/74 39/79/76 59/100/77 58/99/75
f 39/79/76 40/80/78 60/101/79 59/100/77
f 40/80/78 41/81/80 61/102/81 60/101/79
f 41/81/80 22/82/42 42/103/45 61/102/81
s 2
f 23/43/82 22/42/83 62/124/84
f 24/44/85 23/43/82 62/124/84
f 25/45/86 24/44/85 62/124/84
f 26/46/87 25/45/86 62/124/84
f 27/47/88 26/46/87 62/124/84
f 28/48/89 27/47/88 62/124/84
f 29/49/90 28/48/89 62/124/84
f 30/50/91 29/49/90 62/124/84
f 31/51/92 30/50/91 62/124/84
f 32/52/93 31/51/92 62/124/84
f 33/53/94 32/52/93 62/124/84
f 34/54/95 33/53/94 62/124/84
f 35/55/96 34/54/95 62/124/84
f 36/56/97 35/55/96 62/124/84
f 37/57/98 36/56/97 62/124/84
f 38/58/99 37/57/98 62/124/84
f 39/59/100 38/58/99 62/124/84
f 40/60/101 39/59/100 62/124/84
f 41/61/102 40/60/101 62/124/84
f 22/42/83 41/61/102 62/124/84
s 3
f 42/122/103 43/121/104 63/125/105
f 43/121/104 44/120/106 63/125/105
f 44/120/106 45/119/107 63/125/105
f 45/119/107 46/118/108 63/125/105
f 63/125/105 46/118/108 47/117/109 48/116/110
f 48/116/110 49/115/111 63/125/105
f 49/115/111 50/114/112 63/125/105
f 50/114/112 51/113/113 63/125/105
f 51/113/113 52/112/114 63/125/105
f 52/112/114 53/111/115 63/125/105
f 53/111/115 54/110/116 63/125/105
f 54/110/116 55/109/117 63/125/105
f 55/109/117 56/108/118 63/125/105
f 56/108/118 57/107/119 63/125/105
f 57/107/119 58/106/120 63/125/105
f 58/106/120 59/105/121 63/125/105
f 59/105/121 60/104/122 63/125/105
f 60/104/122 61/123/123 63/125/105
f 61/123/123 42/122/103 63/125/105
